# xmcd
#
# Track frame offsets:
#	150
#	20446
#	39057
#	55660
#	79619
#	96992
#	114631
#	141274
#	155852
#	178804
#	196148
#	213432
#	237586
#	261285
#	283959
#	306792
#
# Disc length: 4336 seconds
#
# Revision: 2
# Processed by: cddbd v1.5.2PL0 Copyright (c) Steve Scherf et al.
# Submitted via: EasyCDDAExtractor 16.0.6.1
#
DISCID=e710ee10
DTITLE=Various Artist - Italo Dance Hits 
DYEAR=2001
DGENRE=Compilation
TTITLE0=Silver Pozzoli  - Around My Dream
TTITLE1=Ryan Paris  - Dolce Vita
TTITLE2=Belen Thomas and Patric Hernandez  - Born To Be Alive
TTITLE3=Club House  - Do It Again Meets Billy Jean
TTITLE4=Scotch  - Mirage
TTITLE5=P. Lion - Happy Children
TTITLE6=Patty Johnson  - I´m In Love
TTITLE7=Chip Chip  - So Close To Heaven
TTITLE8=Finzy Kontini  - Cha Cha Cha
TTITLE9=Firefly  - Love Is Gonna Be On Your Side
TTITLE10=Clip Club  - Give It To Me (Give Me All Your Love)
TTITLE11=Tabu d'Apache  - Colours
TTITLE12=Stage  - Ocean Of Crime
TTITLE13=Miko Mission  - How Old Are You?
TTITLE14=Sandy Marton  - People From Ibiza
TTITLE15=Max Him  - Lady Fantasy
EXTD=
EXTT0=
EXTT1=
EXTT2=
EXTT3=
EXTT4=
EXTT5=
EXTT6=
EXTT7=
EXTT8=
EXTT9=
EXTT10=
EXTT11=
EXTT12=
EXTT13=
EXTT14=
EXTT15=
PLAYORDER=
